<?xml version="1.0" standalone="no"?><!DOCTYPE svg PUBLIC "-//W3C//DTD SVG 1.1//EN" "http://www.w3.org/Graphics/SVG/1.1/DTD/svg11.dtd"><svg t="1604997149165" class="icon" viewBox="0 0 1024 1024" version="1.1" xmlns="http://www.w3.org/2000/svg" p-id="21194" xmlns:xlink="http://www.w3.org/1999/xlink" width="200" height="200"><defs><style type="text/css"></style></defs><path d="M810.666667 341.333333l-170.666667 170.666667h128a256 256 0 0 1-256 256c-42.666667 0-84.053333-10.666667-119.466667-29.866667l-62.293333 62.293334A338.346667 338.346667 0 0 0 512 853.333333a341.333333 341.333333 0 0 0 341.333333-341.333333h128M256 512a256 256 0 0 1 256-256c42.666667 0 84.053333 10.666667 119.466667 29.866667l62.293333-62.293334A338.346667 338.346667 0 0 0 512 170.666667a341.333333 341.333333 0 0 0-341.333333 341.333333H42.666667l170.666666 170.666667 170.666667-170.666667" fill="" p-id="21195"></path></svg>