<?xml version="1.0" standalone="no"?><!DOCTYPE svg PUBLIC "-//W3C//DTD SVG 1.1//EN" "http://www.w3.org/Graphics/SVG/1.1/DTD/svg11.dtd"><svg t="1605013472031" class="icon" viewBox="0 0 1024 1024" version="1.1" xmlns="http://www.w3.org/2000/svg" p-id="21049" xmlns:xlink="http://www.w3.org/1999/xlink" width="200" height="200"><defs><style type="text/css"></style></defs><path d="M810.666667 128l-256 256 85.333333 85.333333 298.666667-298.666666V128m-426.666667 405.333333a21.333333 21.333333 0 0 1-21.333333-21.333333 21.333333 21.333333 0 0 1 21.333333-21.333333 21.333333 21.333333 0 0 1 21.333333 21.333333 21.333333 21.333333 0 0 1-21.333333 21.333333M256 853.333333a85.333333 85.333333 0 0 1-85.333333-85.333333 85.333333 85.333333 0 0 1 85.333333-85.333333 85.333333 85.333333 0 0 1 85.333333 85.333333 85.333333 85.333333 0 0 1-85.333333 85.333333M256 341.333333a85.333333 85.333333 0 0 1-85.333333-85.333333 85.333333 85.333333 0 0 1 85.333333-85.333333 85.333333 85.333333 0 0 1 85.333333 85.333333 85.333333 85.333333 0 0 1-85.333333 85.333333m155.306667-15.36c9.813333-21.333333 15.36-44.8 15.36-69.973333a170.666667 170.666667 0 0 0-170.666667-170.666667 170.666667 170.666667 0 0 0-170.666667 170.666667 170.666667 170.666667 0 0 0 170.666667 170.666667c25.173333 0 48.64-5.546667 69.973333-15.36L426.666667 512l-100.693334 100.693333C304.64 602.88 281.173333 597.333333 256 597.333333a170.666667 170.666667 0 0 0-170.666667 170.666667 170.666667 170.666667 0 0 0 170.666667 170.666667 170.666667 170.666667 0 0 0 170.666667-170.666667c0-25.173333-5.546667-48.64-15.36-69.973333L512 597.333333l298.666667 298.666667h128v-42.666667L411.306667 325.973333z" fill="" p-id="21050"></path></svg>