<?xml version="1.0" standalone="no"?><!DOCTYPE svg PUBLIC "-//W3C//DTD SVG 1.1//EN" "http://www.w3.org/Graphics/SVG/1.1/DTD/svg11.dtd"><svg t="1605013379966" class="icon" viewBox="0 0 1024 1024" version="1.1" xmlns="http://www.w3.org/2000/svg" p-id="20904" xmlns:xlink="http://www.w3.org/1999/xlink" width="200" height="200"><defs><style type="text/css"></style></defs><path d="M810.666667 853.333333H213.333333V170.666667h85.333334v128h426.666666V170.666667h85.333334m-298.666667-85.333334a42.666667 42.666667 0 0 1 42.666667 42.666667 42.666667 42.666667 0 0 1-42.666667 42.666667 42.666667 42.666667 0 0 1-42.666667-42.666667 42.666667 42.666667 0 0 1 42.666667-42.666667m298.666667 0h-178.346667C614.4 35.84 567.466667 0 512 0c-55.466667 0-102.4 35.84-120.32 85.333333H213.333333a85.333333 85.333333 0 0 0-85.333333 85.333334v682.666666a85.333333 85.333333 0 0 0 85.333333 85.333334h597.333334a85.333333 85.333333 0 0 0 85.333333-85.333334V170.666667a85.333333 85.333333 0 0 0-85.333333-85.333334z" fill="" p-id="20905"></path></svg>