<?xml version="1.0" standalone="no"?><!DOCTYPE svg PUBLIC "-//W3C//DTD SVG 1.1//EN" "http://www.w3.org/Graphics/SVG/1.1/DTD/svg11.dtd"><svg t="1604999541032" class="icon" viewBox="0 0 1024 1024" version="1.1" xmlns="http://www.w3.org/2000/svg" p-id="21919" xmlns:xlink="http://www.w3.org/1999/xlink" width="200" height="200"><defs><style type="text/css"></style></defs><path d="M554.666667 384h234.666666L554.666667 149.333333V384M256 85.333333h341.333333l256 256v512a85.333333 85.333333 0 0 1-85.333333 85.333334H256a85.333333 85.333333 0 0 1-85.333333-85.333334V170.666667c0-47.36 37.973333-85.333333 85.333333-85.333334m128 597.333334a85.333333 85.333333 0 0 0-85.333333 85.333333 85.333333 85.333333 0 0 0 85.333333 85.333333 85.333333 85.333333 0 0 0 85.333333-85.333333v-213.333333h128v-85.333334h-170.666666v224.853334c-12.373333-7.253333-27.306667-11.52-42.666667-11.52z" fill="" p-id="21920"></path></svg>