<?xml version="1.0" standalone="no"?><!DOCTYPE svg PUBLIC "-//W3C//DTD SVG 1.1//EN" "http://www.w3.org/Graphics/SVG/1.1/DTD/svg11.dtd"><svg t="1604996284463" class="icon" viewBox="0 0 1024 1024" version="1.1" xmlns="http://www.w3.org/2000/svg" p-id="21049" xmlns:xlink="http://www.w3.org/1999/xlink" width="200" height="200"><defs><style type="text/css"></style></defs><path d="M586.666667 384h101.973333L810.666667 597.333333h-125.866667L576 403.626667M780.8 725.333333h-236.8l59.733333-106.666666h218.453334l11.093333 19.626666M490.666667 725.333333l-46.933334-91.306666 121.173334-211.626667 64 113.493333L522.666667 725.333333M853.333333 256h-341.333333l-85.333333-85.333333H170.666667c-47.36 0-85.333333 37.973333-85.333334 85.333333v512a85.333333 85.333333 0 0 0 85.333334 85.333333h682.666666a85.333333 85.333333 0 0 0 85.333334-85.333333V341.333333a85.333333 85.333333 0 0 0-85.333334-85.333333z" fill="" p-id="21050"></path></svg>