<?xml version="1.0" standalone="no"?><!DOCTYPE svg PUBLIC "-//W3C//DTD SVG 1.1//EN" "http://www.w3.org/Graphics/SVG/1.1/DTD/svg11.dtd"><svg t="1607848916673" class="icon" viewBox="0 0 1024 1024" version="1.1" xmlns="http://www.w3.org/2000/svg" p-id="3295" xmlns:xlink="http://www.w3.org/1999/xlink" width="200" height="200"><defs><style type="text/css"></style></defs><path d="M536 120m-120 0a120 120 0 1 0 240 0 120 120 0 1 0-240 0Z" p-id="3296"></path><path d="M536 956.8m-67.2 0a67.2 67.2 0 1 0 134.4 0 67.2 67.2 0 1 0-134.4 0Z" p-id="3297"></path><path d="M955.2 494.4c-22.4 0-44.8 17.6-44.8 44.8s17.6 44.8 44.8 44.8c27.2 0 44.8-17.6 44.8-44.8s-22.4-44.8-44.8-44.8zM203.2 539.2c0-49.6-40-89.6-89.6-89.6s-89.6 40-89.6 89.6 40 89.6 89.6 89.6 89.6-41.6 89.6-89.6z" p-id="3298"></path><path d="M835.2 832m-52.8 0a52.8 52.8 0 1 0 105.6 0 52.8 52.8 0 1 0-105.6 0Z" p-id="3299"></path><path d="M171.2 174.4c-40 40-40 97.6 0 137.6s97.6 40 137.6 0 40-97.6 0-137.6-97.6-41.6-137.6 0zM857.6 267.2c12.8-12.8 12.8-35.2 0-44.8-12.8-12.8-35.2-12.8-44.8 0-12.8 12.8-12.8 35.2 0 44.8 8 12.8 30.4 12.8 44.8 0z" p-id="3300"></path><path d="M238.4 832m-75.2 0a75.2 75.2 0 1 0 150.4 0 75.2 75.2 0 1 0-150.4 0Z" p-id="3301"></path></svg>